<svg width="125" height="21" viewBox="0 0 125 21" fill="none" xmlns="http://www.w3.org/2000/svg">
<path d="M14.784 6.56C14.4293 5.90667 13.916 5.412 13.244 5.076C12.5907 4.72133 11.816 4.544 10.92 4.544C9.37067 4.544 8.12933 5.05733 7.196 6.084C6.26267 7.092 5.796 8.44533 5.796 10.144C5.796 11.9547 6.28133 13.3733 7.252 14.4C8.24133 15.408 9.59467 15.912 11.312 15.912C12.488 15.912 13.4773 15.6133 14.28 15.016C15.1013 14.4187 15.6987 13.56 16.072 12.44H9.996V8.912H20.412V13.364C20.0573 14.5587 19.4507 15.6693 18.592 16.696C17.752 17.7227 16.6787 18.5533 15.372 19.188C14.0653 19.8227 12.5907 20.14 10.948 20.14C9.00667 20.14 7.27067 19.72 5.74 18.88C4.228 18.0213 3.04267 16.836 2.184 15.324C1.344 13.812 0.924 12.0853 0.924 10.144C0.924 8.20267 1.344 6.476 2.184 4.964C3.04267 3.43333 4.228 2.248 5.74 1.408C7.252 0.549332 8.97867 0.119999 10.92 0.119999C13.272 0.119999 15.2507 0.689332 16.856 1.828C18.48 2.96667 19.5533 4.544 20.076 6.56H14.784ZM32.3601 20.196C30.5121 20.196 28.8135 19.7667 27.2641 18.908C25.7335 18.0493 24.5108 16.8547 23.5961 15.324C22.7001 13.7747 22.2521 12.0387 22.2521 10.116C22.2521 8.19333 22.7001 6.46667 23.5961 4.936C24.5108 3.40533 25.7335 2.21067 27.2641 1.352C28.8135 0.493333 30.5121 0.0639997 32.3601 0.0639997C34.2081 0.0639997 35.8975 0.493333 37.4281 1.352C38.9775 2.21067 40.1908 3.40533 41.0681 4.936C41.9641 6.46667 42.4121 8.19333 42.4121 10.116C42.4121 12.0387 41.9641 13.7747 41.0681 15.324C40.1721 16.8547 38.9588 18.0493 37.4281 18.908C35.8975 19.7667 34.2081 20.196 32.3601 20.196ZM32.3601 15.828C33.9281 15.828 35.1788 15.3053 36.1121 14.26C37.0641 13.2147 37.5401 11.8333 37.5401 10.116C37.5401 8.38 37.0641 6.99867 36.1121 5.972C35.1788 4.92667 33.9281 4.404 32.3601 4.404C30.7735 4.404 29.5041 4.91733 28.5521 5.944C27.6188 6.97067 27.1521 8.36133 27.1521 10.116C27.1521 11.852 27.6188 13.2427 28.5521 14.288C29.5041 15.3147 30.7735 15.828 32.3601 15.828ZM65.1494 0.343999V4.18H59.9414V20H55.1534V4.18H49.9454V0.343999H65.1494ZM76.8484 20.196C75.0004 20.196 73.3017 19.7667 71.7524 18.908C70.2217 18.0493 68.9991 16.8547 68.0844 15.324C67.1884 13.7747 66.7404 12.0387 66.7404 10.116C66.7404 8.19333 67.1884 6.46667 68.0844 4.936C68.9991 3.40533 70.2217 2.21067 71.7524 1.352C73.3017 0.493333 75.0004 0.0639997 76.8484 0.0639997C78.6964 0.0639997 80.3857 0.493333 81.9164 1.352C83.4657 2.21067 84.6791 3.40533 85.5564 4.936C86.4524 6.46667 86.9004 8.19333 86.9004 10.116C86.9004 12.0387 86.4524 13.7747 85.5564 15.324C84.6604 16.8547 83.4471 18.0493 81.9164 18.908C80.3857 19.7667 78.6964 20.196 76.8484 20.196ZM76.8484 15.828C78.4164 15.828 79.6671 15.3053 80.6004 14.26C81.5524 13.2147 82.0284 11.8333 82.0284 10.116C82.0284 8.38 81.5524 6.99867 80.6004 5.972C79.6671 4.92667 78.4164 4.404 76.8484 4.404C75.2617 4.404 73.9924 4.91733 73.0404 5.944C72.1071 6.97067 71.6404 8.36133 71.6404 10.116C71.6404 11.852 72.1071 13.2427 73.0404 14.288C73.9924 15.3147 75.2617 15.828 76.8484 15.828ZM94.2681 0.343999V12.104C94.2681 13.28 94.5575 14.1853 95.1361 14.82C95.7148 15.4547 96.5641 15.772 97.6841 15.772C98.8041 15.772 99.6628 15.4547 100.26 14.82C100.857 14.1853 101.156 13.28 101.156 12.104V0.343999H105.944V12.076C105.944 13.8307 105.571 15.3147 104.824 16.528C104.077 17.7413 103.069 18.656 101.8 19.272C100.549 19.888 99.1495 20.196 97.6001 20.196C96.0508 20.196 94.6601 19.8973 93.4281 19.3C92.2148 18.684 91.2535 17.7693 90.5441 16.556C89.8348 15.324 89.4801 13.8307 89.4801 12.076V0.343999H94.2681ZM119.33 20L115.242 12.58H114.094V20H109.306V0.343999H117.342C118.892 0.343999 120.208 0.614666 121.29 1.156C122.392 1.69733 123.213 2.444 123.754 3.396C124.296 4.32933 124.566 5.37467 124.566 6.532C124.566 7.83867 124.193 9.00533 123.446 10.032C122.718 11.0587 121.636 11.7867 120.198 12.216L124.734 20H119.33ZM114.094 9.192H117.062C117.94 9.192 118.593 8.97733 119.022 8.548C119.47 8.11867 119.694 7.512 119.694 6.728C119.694 5.98133 119.47 5.39333 119.022 4.964C118.593 4.53467 117.94 4.32 117.062 4.32H114.094V9.192Z" fill="#2C3E50"/>
</svg>
